<mxfile host="app.diagrams.net" modified="2024-04-25T16:14:34.780Z" agent="Mozilla/5.0 (Windows NT 10.0; Win64; x64) AppleWebKit/537.36 (KHTML, like Gecko) Chrome/123.0.0.0 Safari/537.36 Edg/123.0.0.0" etag="_nmonAsTiMWeTCnkIb4k" version="24.3.0" type="github">
  <diagram id="C5RBs43oDa-KdzZeNtuy" name="Page-1">
    <mxGraphModel dx="1282" dy="577" grid="1" gridSize="10" guides="1" tooltips="1" connect="1" arrows="1" fold="1" page="1" pageScale="1" pageWidth="827" pageHeight="1169" math="0" shadow="0">
      <root>
        <mxCell id="WIyWlLk6GJQsqaUBKTNV-0" />
        <mxCell id="WIyWlLk6GJQsqaUBKTNV-1" parent="WIyWlLk6GJQsqaUBKTNV-0" />
        <mxCell id="0UY12YT9QuLUh7r2XoqW-2" style="edgeStyle=orthogonalEdgeStyle;rounded=0;orthogonalLoop=1;jettySize=auto;html=1;exitX=0.5;exitY=1;exitDx=0;exitDy=0;" edge="1" parent="WIyWlLk6GJQsqaUBKTNV-1" source="0UY12YT9QuLUh7r2XoqW-0" target="0UY12YT9QuLUh7r2XoqW-1">
          <mxGeometry relative="1" as="geometry" />
        </mxCell>
        <mxCell id="0UY12YT9QuLUh7r2XoqW-0" value="监测者登录系统" style="rounded=1;whiteSpace=wrap;html=1;" vertex="1" parent="WIyWlLk6GJQsqaUBKTNV-1">
          <mxGeometry x="354" y="80" width="120" height="60" as="geometry" />
        </mxCell>
        <mxCell id="0UY12YT9QuLUh7r2XoqW-7" style="edgeStyle=orthogonalEdgeStyle;rounded=0;orthogonalLoop=1;jettySize=auto;html=1;exitX=0.5;exitY=1;exitDx=0;exitDy=0;entryX=0.5;entryY=0;entryDx=0;entryDy=0;" edge="1" parent="WIyWlLk6GJQsqaUBKTNV-1" source="0UY12YT9QuLUh7r2XoqW-1" target="0UY12YT9QuLUh7r2XoqW-6">
          <mxGeometry relative="1" as="geometry" />
        </mxCell>
        <mxCell id="0UY12YT9QuLUh7r2XoqW-1" value="获取上次同步时间和用户设置的同步时间" style="rounded=0;whiteSpace=wrap;html=1;" vertex="1" parent="WIyWlLk6GJQsqaUBKTNV-1">
          <mxGeometry x="354" y="170" width="120" height="60" as="geometry" />
        </mxCell>
        <mxCell id="0UY12YT9QuLUh7r2XoqW-10" style="edgeStyle=orthogonalEdgeStyle;rounded=0;orthogonalLoop=1;jettySize=auto;html=1;exitX=0.5;exitY=1;exitDx=0;exitDy=0;entryX=0.5;entryY=0;entryDx=0;entryDy=0;" edge="1" parent="WIyWlLk6GJQsqaUBKTNV-1" source="0UY12YT9QuLUh7r2XoqW-6" target="0UY12YT9QuLUh7r2XoqW-9">
          <mxGeometry relative="1" as="geometry" />
        </mxCell>
        <mxCell id="0UY12YT9QuLUh7r2XoqW-6" value="获取登录时间和上次同步时间之间的时间差" style="rounded=0;whiteSpace=wrap;html=1;" vertex="1" parent="WIyWlLk6GJQsqaUBKTNV-1">
          <mxGeometry x="346" y="260" width="136" height="60" as="geometry" />
        </mxCell>
        <mxCell id="0UY12YT9QuLUh7r2XoqW-12" style="edgeStyle=orthogonalEdgeStyle;rounded=0;orthogonalLoop=1;jettySize=auto;html=1;exitX=0.5;exitY=1;exitDx=0;exitDy=0;entryX=0.5;entryY=0;entryDx=0;entryDy=0;" edge="1" parent="WIyWlLk6GJQsqaUBKTNV-1" source="0UY12YT9QuLUh7r2XoqW-9" target="0UY12YT9QuLUh7r2XoqW-13">
          <mxGeometry relative="1" as="geometry">
            <mxPoint x="414" y="480" as="targetPoint" />
          </mxGeometry>
        </mxCell>
        <mxCell id="0UY12YT9QuLUh7r2XoqW-16" style="edgeStyle=orthogonalEdgeStyle;rounded=0;orthogonalLoop=1;jettySize=auto;html=1;exitX=1;exitY=0.5;exitDx=0;exitDy=0;" edge="1" parent="WIyWlLk6GJQsqaUBKTNV-1" source="0UY12YT9QuLUh7r2XoqW-9" target="0UY12YT9QuLUh7r2XoqW-15">
          <mxGeometry relative="1" as="geometry" />
        </mxCell>
        <mxCell id="0UY12YT9QuLUh7r2XoqW-9" value="比较时间差和设置的同步时间" style="rhombus;whiteSpace=wrap;html=1;" vertex="1" parent="WIyWlLk6GJQsqaUBKTNV-1">
          <mxGeometry x="317" y="350" width="194" height="80" as="geometry" />
        </mxCell>
        <mxCell id="0UY12YT9QuLUh7r2XoqW-13" value="进入系统" style="rounded=1;whiteSpace=wrap;html=1;" vertex="1" parent="WIyWlLk6GJQsqaUBKTNV-1">
          <mxGeometry x="440" y="530" width="120" height="60" as="geometry" />
        </mxCell>
        <mxCell id="0UY12YT9QuLUh7r2XoqW-14" value="小于" style="text;html=1;align=center;verticalAlign=middle;resizable=0;points=[];autosize=1;strokeColor=none;fillColor=none;" vertex="1" parent="WIyWlLk6GJQsqaUBKTNV-1">
          <mxGeometry x="364" y="440" width="50" height="30" as="geometry" />
        </mxCell>
        <mxCell id="0UY12YT9QuLUh7r2XoqW-18" style="edgeStyle=orthogonalEdgeStyle;rounded=0;orthogonalLoop=1;jettySize=auto;html=1;entryX=0.5;entryY=0;entryDx=0;entryDy=0;" edge="1" parent="WIyWlLk6GJQsqaUBKTNV-1" source="0UY12YT9QuLUh7r2XoqW-15" target="0UY12YT9QuLUh7r2XoqW-13">
          <mxGeometry relative="1" as="geometry">
            <mxPoint x="610" y="510" as="targetPoint" />
            <Array as="points">
              <mxPoint x="610" y="480" />
              <mxPoint x="500" y="480" />
            </Array>
          </mxGeometry>
        </mxCell>
        <mxCell id="0UY12YT9QuLUh7r2XoqW-15" value="向接口发送请求获取水质信息" style="rounded=0;whiteSpace=wrap;html=1;" vertex="1" parent="WIyWlLk6GJQsqaUBKTNV-1">
          <mxGeometry x="550" y="360" width="120" height="60" as="geometry" />
        </mxCell>
        <mxCell id="0UY12YT9QuLUh7r2XoqW-17" value="大于" style="text;html=1;align=center;verticalAlign=middle;resizable=0;points=[];autosize=1;strokeColor=none;fillColor=none;" vertex="1" parent="WIyWlLk6GJQsqaUBKTNV-1">
          <mxGeometry x="495" y="358" width="50" height="30" as="geometry" />
        </mxCell>
      </root>
    </mxGraphModel>
  </diagram>
</mxfile>
